#define battery_empty_2_width 20
#define battery_empty_2_height 10
static const unsigned char battery_empty_2_bits[] PROGMEM = {
   0xff, 0xff, 0x03, 0x01, 0x00, 0x02, 0xfd, 0x00, 0x02, 0xfd, 0x00, 0x0e,
   0xfd, 0x00, 0x0e, 0xfd, 0x00, 0x0e, 0xfd, 0x00, 0x0e, 0xfd, 0x00, 0x02,
   0x01, 0x00, 0x02, 0xff, 0xff, 0x03 };
