#define battery_empty_3_width 20
#define battery_empty_3_height 10
static const unsigned char battery_empty_3_bits[] PROGMEM = {
   0xff, 0xff, 0x03, 0x01, 0x00, 0x02, 0x0d, 0x00, 0x02, 0x0d, 0x00, 0x0e,
   0x0d, 0x00, 0x0e, 0x0d, 0x00, 0x0e, 0x0d, 0x00, 0x0e, 0x0d, 0x00, 0x02,
   0x01, 0x00, 0x02, 0xff, 0xff, 0x03 };
