#define battery_full_width 20
#define battery_full_height 10
static const unsigned char battery_full_bits[] PROGMEM = {
   0xff, 0xff, 0x03, 0x01, 0x00, 0x02, 0xfd, 0xff, 0x02, 0xfd, 0xff, 0x0e,
   0xfd, 0xff, 0x0e, 0xfd, 0xff, 0x0e, 0xfd, 0xff, 0x0e, 0xfd, 0xff, 0x02,
   0x01, 0x00, 0x02, 0xff, 0xff, 0x03 };
