#define battery_empty_1_width 20
#define battery_empty_1_height 10
static const unsigned char battery_empty_1_bits[] PROGMEM = {
   0xff, 0xff, 0x03, 0x01, 0x00, 0x02, 0xfd, 0x0f, 0x02, 0xfd, 0x0f, 0x0e,
   0xfd, 0x0f, 0x0e, 0xfd, 0x0f, 0x0e, 0xfd, 0x0f, 0x0e, 0xfd, 0x0f, 0x02,
   0x01, 0x00, 0x02, 0xff, 0xff, 0x03 };
